<?xml version="1.0" encoding="utf-8"?>
<!-- Generator: Adobe Illustrator 19.0.0, SVG Export Plug-In . SVG Version: 6.00 Build 0)  -->
<svg version="1.1" id="Layer_1" xmlns="http://www.w3.org/2000/svg" xmlns:xlink="http://www.w3.org/1999/xlink" x="0px" y="0px"
	 viewBox="0 0 240 240" style="enable-background:new 0 0 240 240;" xml:space="preserve">
<style type="text/css">
	.st0{fill:#2A2B2A;}
	.st1{clip-path:url(#XMLID_28_);fill:#2A2B2A;}
	.st2{fill:#F5F6F7;}
	.st3{fill:#DC1F26;}
</style>
<g id="XMLID_27_">
	<path id="XMLID_25_" class="st0" d="M184.5,105.3c-6.7-8.7-16.1-15.9-27.2-20.8c-11-5-23.8-7.8-37.4-7.8c-13.6,0-26.3,2.8-37.4,7.8
		c-11,5-20.4,12.1-27.2,20.8c-1.3,1.7-1,4.2,0.7,5.6c1.7,1.3,4.2,1,5.6-0.7c5.8-7.5,14.2-14,24.2-18.5c10-4.5,21.6-7.1,34.1-7.1
		c12.5,0,24.1,2.6,34.1,7.1c10,4.5,18.3,10.9,24.2,18.5c1.3,1.7,3.8,2,5.6,0.7C185.5,109.5,185.9,107,184.5,105.3L184.5,105.3z"/>
	<path id="XMLID_24_" class="st0" d="M175.3,128.8l3.3,2.3c1.7-2.4,2.5-5.1,2.5-7.9c0-2.8-0.9-5.5-2.5-7.9
		c-6.1-8.7-14.6-15.9-24.6-20.9c-10-5-21.6-7.9-34-7.9c-12.3,0-23.9,2.9-34,7.9c-10,5-18.5,12.2-24.6,20.9c-1.7,2.4-2.5,5.1-2.5,7.9
		c0,2.8,0.9,5.5,2.5,7.9C67.5,139.8,76,147,86,152c10,5,21.6,7.9,34,7.9c12.3,0,23.9-2.9,34-7.9c10-5,18.5-12.2,24.6-20.9
		L175.3,128.8l-3.3-2.3c-5.3,7.5-12.7,13.9-21.6,18.4c-8.9,4.5-19.3,7-30.4,7c-11.1,0-21.5-2.6-30.4-7c-8.9-4.5-16.4-10.8-21.6-18.4
		c-0.7-1.1-1.1-2.2-1.1-3.3c0-1.1,0.3-2.3,1.1-3.3c5.3-7.5,12.7-13.9,21.6-18.4c8.9-4.5,19.3-7,30.4-7c11.1,0,21.5,2.6,30.4,7
		c8.9,4.5,16.4,10.8,21.6,18.4c0.7,1.1,1.1,2.2,1.1,3.3c0,1.1-0.3,2.3-1.1,3.3L175.3,128.8z"/>
	<g id="XMLID_49_">
		<defs>
			<path id="XMLID_22_" d="M175.3,132.4c2.4-3.8,2.4-8.5,0-12.3C164,102.3,143.4,90.4,120,90.4s-44,11.9-55.3,29.6
				c-2.4,3.8-2.4,8.5,0,12.3C76,150.1,96.6,162,120,162S164,150.1,175.3,132.4z"/>
		</defs>
		<clipPath id="XMLID_28_">
			<use xlink:href="#XMLID_22_"  style="overflow:visible;"/>
		</clipPath>
		<ellipse id="XMLID_23_" class="st1" cx="120" cy="105" rx="29.2" ry="32"/>
	</g>
	<circle id="XMLID_21_" class="st2" cx="142.1" cy="122.6" r="6.7"/>
	<path id="XMLID_20_" class="st2" d="M148.8,122.6h-0.3c0,1.8-0.7,3.4-1.9,4.6c-1.2,1.2-2.8,1.9-4.6,1.9c-1.8,0-3.4-0.7-4.6-1.9
		c-1.2-1.2-1.9-2.8-1.9-4.6c0-1.8,0.7-3.4,1.9-4.6c1.2-1.2,2.8-1.9,4.6-1.9c1.8,0,3.4,0.7,4.6,1.9c1.2,1.2,1.9,2.8,1.9,4.6H148.8
		h0.3c0-3.8-3.1-7-7-7c-3.8,0-7,3.1-7,7c0,3.8,3.1,7,7,7c3.8,0,7-3.1,7-7H148.8z"/>
	<path id="XMLID_19_" class="st0" d="M180.2,161c0,6.9-5.6,12.5-12.5,12.5c-6.9,0-12.5-5.6-12.5-12.5c0-6.9,12.5-24.7,12.5-24.7
		S180.2,154.1,180.2,161z"/>
	<path id="XMLID_18_" class="st2" d="M173.1,158.5l0.7-0.2L173.1,158.5L173.1,158.5l0.7-0.2L173.1,158.5c0,0,0,0.1,0.1,0.2
		c0.1,0.4,0.3,1.3,0.3,2.3c0,1.1-0.2,2.4-0.8,3.6c-0.3,0.6-0.8,1.2-1.3,1.7c-0.6,0.5-1.4,1-2.3,1.5c-0.7,0.3-1,1.1-0.7,1.7
		c0.3,0.7,1.1,1,1.7,0.7c1.2-0.5,2.3-1.2,3.1-1.9c1.2-1.1,2-2.4,2.5-3.7c0.5-1.3,0.6-2.5,0.6-3.6c0-1.9-0.4-3.2-0.5-3.3
		c-0.2-0.7-1-1.1-1.7-0.9C173.2,157.1,172.9,157.8,173.1,158.5L173.1,158.5z"/>
	<path id="XMLID_17_" class="st3" d="M115.9,5v27.9c0,0.7,0.6,1.3,1.3,1.3c0.7,0,1.3-0.6,1.3-1.3V5c0-0.7-0.6-1.3-1.3-1.3
		C116.5,3.7,115.9,4.3,115.9,5"/>
	<path id="XMLID_16_" class="st3" d="M115.9,5v13.9c0,0.7,0.6,1.3,1.3,1.3c0.7,0,1.3-0.6,1.3-1.3V5c0-0.7-0.6-1.3-1.3-1.3
		C116.5,3.7,115.9,4.3,115.9,5"/>
	<path id="XMLID_15_" class="st3" d="M72.2,15.3l5.3,12.9c0.3,0.7,1.1,1,1.7,0.7c0.7-0.3,1-1.1,0.7-1.7l-5.3-12.9
		c-0.3-0.7-1.1-1-1.7-0.7C72.3,13.8,72,14.6,72.2,15.3"/>
	<path id="XMLID_14_" class="st3" d="M12.2,79.7l12.9,5.3c0.7,0.3,1.4,0,1.7-0.7c0.3-0.7,0-1.4-0.7-1.7l-12.9-5.3
		c-0.7-0.3-1.4,0-1.7,0.7C11.2,78.7,11.5,79.5,12.2,79.7"/>
	<path id="XMLID_13_" class="st3" d="M15.3,167.8l12.9-5.3c0.7-0.3,1-1.1,0.7-1.7c-0.3-0.7-1.1-1-1.7-0.7l-12.9,5.3
		c-0.7,0.3-1,1.1-0.7,1.7C13.8,167.7,14.6,168,15.3,167.8"/>
	<path id="XMLID_12_" class="st3" d="M79.7,227.8l5.3-12.9c0.3-0.7,0-1.4-0.7-1.7c-0.7-0.3-1.4,0-1.7,0.7l-5.3,12.9
		c-0.3,0.7,0,1.4,0.7,1.7C78.7,228.8,79.5,228.5,79.7,227.8"/>
	<path id="XMLID_11_" class="st3" d="M167.8,224.7l-5.3-12.9c-0.3-0.7-1.1-1-1.7-0.7s-1,1.1-0.7,1.7l5.3,12.9c0.3,0.7,1.1,1,1.7,0.7
		S168,225.4,167.8,224.7"/>
	<path id="XMLID_10_" class="st3" d="M227.8,160.3l-12.9-5.3c-0.7-0.3-1.4,0-1.7,0.7c-0.3,0.7,0,1.4,0.7,1.7l12.9,5.3
		c0.7,0.3,1.4,0,1.7-0.7C228.8,161.3,228.5,160.5,227.8,160.3"/>
	<path id="XMLID_9_" class="st3" d="M224.7,72.2l-12.9,5.3c-0.7,0.3-1,1.1-0.7,1.7c0.3,0.7,1.1,1,1.7,0.7l12.9-5.3
		c0.7-0.3,1-1.1,0.7-1.7C226.2,72.3,225.4,72,224.7,72.2"/>
	<path id="XMLID_8_" class="st3" d="M160.3,12.2l-5.3,12.9c-0.3,0.7,0,1.4,0.7,1.7c0.7,0.3,1.4,0,1.7-0.7l5.3-12.9
		c0.3-0.7,0-1.4-0.7-1.7C161.3,11.2,160.5,11.5,160.3,12.2"/>
	<path id="XMLID_7_" class="st3" d="M35.8,41.5l19.7,19.7c0.5,0.5,1.4,0.5,1.9,0c0.5-0.5,0.5-1.4,0-1.9L37.7,39.7
		c-0.5-0.5-1.4-0.5-1.9,0C35.3,40.2,35.3,41,35.8,41.5"/>
	<path id="XMLID_6_" class="st3" d="M5,124.1h27.9c0.7,0,1.3-0.6,1.3-1.3c0-0.7-0.6-1.3-1.3-1.3H5c-0.7,0-1.3,0.6-1.3,1.3
		C3.7,123.5,4.3,124.1,5,124.1"/>
	<path id="XMLID_5_" class="st3" d="M41.5,204.2l19.7-19.7c0.5-0.5,0.5-1.4,0-1.9c-0.5-0.5-1.4-0.5-1.9,0l-19.7,19.7
		c-0.5,0.5-0.5,1.4,0,1.9C40.2,204.7,41,204.7,41.5,204.2"/>
	<path id="XMLID_4_" class="st3" d="M124.1,235v-27.9c0-0.7-0.6-1.3-1.3-1.3c-0.7,0-1.3,0.6-1.3,1.3V235c0,0.7,0.6,1.3,1.3,1.3
		C123.5,236.3,124.1,235.7,124.1,235"/>
	<path id="XMLID_3_" class="st3" d="M204.2,198.5l-19.7-19.7c-0.5-0.5-1.4-0.5-1.9,0s-0.5,1.4,0,1.9l19.7,19.7
		c0.5,0.5,1.4,0.5,1.9,0C204.7,199.8,204.7,199,204.2,198.5"/>
	<path id="XMLID_2_" class="st3" d="M235,115.9h-27.9c-0.7,0-1.3,0.6-1.3,1.3c0,0.7,0.6,1.3,1.3,1.3H235c0.7,0,1.3-0.6,1.3-1.3
		C236.3,116.5,235.7,115.9,235,115.9"/>
	<path id="XMLID_1_" class="st3" d="M198.5,35.8l-19.7,19.7c-0.5,0.5-0.5,1.4,0,1.9c0.5,0.5,1.4,0.5,1.9,0l19.7-19.7
		c0.5-0.5,0.5-1.4,0-1.9C199.8,35.3,199,35.3,198.5,35.8"/>
</g>
</svg>
